<?xml version="1.0" encoding="utf-8"?>
<!DOCTYPE svg PUBLIC "-//W3C//DTD SVG 1.0//EN" "http://www.w3.org/TR/2001/REC-SVG-20010904/DTD/svg10.dtd">
<svg version="1.0" xmlns="http://www.w3.org/2000/svg" width="373px" height="397px" viewBox="0 0 373 397" preserveAspectRatio="xMidYMid meet">
 <g fill="#000000">
  <path d="M0 198.50 l0 -198.50 186.50 0 186.50 0 0 198.50 0 198.50 -186.50 0 -186.50 0 0 -198.50z m243.50 151 c22.15 -1.35 40 -5.20 52.10 -11.30 8.70 -4.40 22.60 -14.95 27.65 -21.05 13.80 -16.60 21.35 -37.65 23.75 -65.90 1.10 -12.90 1.60 -38.50 1.30 -64.50 -0.35 -34.20 -1.35 -48.65 -4.35 -62.35 -4.15 -19.05 -12.05 -35.50 -22.35 -46.45 -6.10 -6.50 -11.15 -10.25 -24.90 -18.55 -10.20 -6.15 -28.50 -10.40 -51.20 -11.90 -10.10 -0.70 -107.75 -0.70 -117.75 0 -23.50 1.55 -41.50 5.80 -52 12.20 -9.85 6.05 -12 7.45 -15.35 10.15 -9.90 7.80 -16.40 15.95 -21.80 27.20 -4.90 10.25 -7.15 16.85 -9.60 28.25 -3.30 15.75 -4.15 30.60 -4.15 73.20 0 42.55 0.85 57.45 4.15 73.20 4 18.95 10.95 33.85 21.45 46.25 4.60 5.40 18.85 16.15 26.60 20.05 12 6.05 30.40 10.20 51.20 11.45 9.65 0.60 105.60 0.65 115.25 0.05z"/>
  <path d="M180 280.70 c-0.40 -0.15 -2.15 -0.95 -3.85 -1.75 -4.05 -2 -6.15 -4.10 -6.15 -6.30 0 -1.30 -0.20 -1.65 -1 -1.65 -1.70 0 -2.50 -2.45 -2.50 -7.60 0 -2.60 0.30 -5.85 0.70 -7.30 l0.65 -2.65 -1.40 -0.75 c-1.20 -0.60 -1.45 -1.05 -1.45 -2.45 0 -1.70 0.05 -1.75 2 -1.75 1.10 0 3.65 0.45 5.60 1 4.05 1.10 6.20 0.95 8.80 -0.60 1.75 -1.05 3.10 -3.20 3.10 -4.90 0 -0.85 0.30 -1 2 -1 1.70 0 2 0.15 2 1.05 0 1.75 1.90 4.30 3.90 5.25 2.25 1.10 6.05 1.10 9.05 0 1.20 -0.45 3.15 -0.80 4.35 -0.80 2.20 0 2.20 0 2.20 1.75 0 1.40 -0.25 1.90 -1.30 2.35 -1.15 0.55 -1.25 0.80 -0.95 2.35 0.15 1 0.45 4.30 0.60 7.40 0.20 4.65 0.10 5.90 -0.65 7.45 -0.50 1 -1.30 1.95 -1.80 2.10 -0.55 0.10 -0.90 0.65 -0.90 1.35 0 1.15 -1.75 3.75 -2.50 3.75 -0.25 0 -1.40 0.65 -2.60 1.45 -2.50 1.70 -5.30 2.55 -8.25 2.55 -2.10 0 -2.15 0 -2.15 -1.75 0 -1.25 0.20 -1.75 0.75 -1.75 1.40 0 7.35 -3 9.55 -4.75 1.15 -0.95 2.35 -1.75 2.65 -1.75 0.30 0 0.55 -0.40 0.55 -0.95 0 -0.50 0.35 -1.75 0.75 -2.70 0.95 -2.35 0.95 -5.60 -0.05 -9.60 l-0.80 -3.25 -4.10 0 c-4.55 0 -7.15 -0.60 -8.85 -1.95 -1.10 -0.85 -1.15 -0.85 -3.40 0.40 -1.85 1 -3.15 1.30 -7.30 1.50 l-5 0.30 -0.70 2 c-1.25 3.65 -0.70 14.25 0.75 14.25 0.40 0 1.75 0.80 3 1.80 2.80 2.10 5.20 3.35 8.10 4.20 1.90 0.60 2.10 0.80 2.10 2.35 0 1.65 0 1.65 -2.35 1.60 -1.35 0 -2.75 -0.15 -3.15 -0.25z"/>
  <path d="M141.10 212.60 c-5.20 -1.85 -10 -8.45 -11.10 -15.15 -1.25 -8 -0.25 -15.85 2.75 -21.20 3.25 -5.80 6.75 -8.25 12.35 -8.65 4.20 -0.30 6.85 0.40 10.35 2.80 5 3.35 8.05 11 8.05 20 0 5.65 -0.65 9.05 -2.45 12.90 -1.70 3.65 -4.40 6.80 -7.40 8.50 -3 1.80 -8.80 2.15 -12.55 0.80z m13.25 -30.05 c2.20 -1.80 2.15 -3.50 -0.10 -5.80 -1.90 -1.85 -2.70 -2.10 -4.40 -1.15 -1.30 0.65 -2.20 1.70 -2.85 3.30 -0.40 0.85 -0.25 1.65 0.50 3.10 0.55 1.05 1.25 2.05 1.60 2.15 1.15 0.50 3.65 -0.25 5.25 -1.60z"/>
  <path d="M220.80 212.30 c-5.20 -2.20 -8.50 -6.55 -10.30 -13.60 -3.15 -12.20 0.95 -25.25 9.20 -29.60 2.20 -1.15 3.15 -1.35 7.05 -1.35 4.10 0 4.75 0.15 7.25 1.55 2.65 1.50 2.75 1.65 2.90 3.95 l0.15 2.40 -2.95 -0.35 c-2.70 -0.30 -3.10 -0.20 -4.50 0.95 -0.80 0.70 -1.65 1.80 -1.80 2.50 -0.45 1.75 0.90 4.15 2.95 5.10 1.55 0.75 1.80 0.75 3 -0.05 0.70 -0.45 1.55 -1.40 1.85 -2.10 0.30 -0.65 0.75 -1.20 1 -1.20 0.20 0 0.40 -0.65 0.40 -1.50 0 -1.35 0.15 -1.50 1.70 -1.50 3.30 0 4.25 2.35 4.65 11.15 0.30 6.90 -0.30 10.75 -2.45 15.25 -2.90 6.10 -7.20 9.15 -13.40 9.45 -3.15 0.15 -4.25 0 -6.70 -1.05z"/>
 </g>
 <g fill="#4d1a18">
  <path d="M181.75 280.55 c-0.55 -0.25 -1.60 -0.50 -2.35 -0.50 -0.80 -0.05 -1.85 -0.45 -2.35 -0.90 -1.70 -1.55 -2.50 -2.15 -2.85 -2.15 -0.85 0 -5.20 -3.80 -5.65 -4.95 -0.55 -1.50 -1.35 -6.25 -1.85 -11.15 -0.25 -2.85 -0.20 -3.40 0.45 -3.40 0.50 0 0.85 -0.70 1.05 -2.10 0.35 -2.30 1.05 -3.80 1.55 -3.30 0.15 0.15 -0.15 2.05 -0.75 4.20 -1.20 4.65 -1.30 9.65 -0.25 11.70 0.85 1.60 1.55 2.05 1 0.65 -1.05 -2.80 -1.25 -6.10 -0.50 -9.70 1.35 -6.55 1 -6.25 6.65 -6.20 5.30 0 7.40 -0.70 9.45 -3.15 l1.10 -1.30 2 1.85 c2.50 2.25 5.20 3 10 2.75 l3.75 -0.15 0.95 3.25 c1.20 4.25 1.30 10.15 0.20 12.65 -1 2.30 -0.30 2.05 0.85 -0.35 1.10 -2.35 1 -7.50 -0.20 -12.10 -0.60 -2.10 -0.90 -3.95 -0.75 -4.10 0.40 -0.45 1.25 0.95 1.25 2.05 0 0.45 0.35 0.85 0.75 0.85 0.60 0 0.75 0.70 0.65 3.40 -0.05 1.85 0.10 5 0.30 7 0.30 2.50 0.25 3.60 -0.15 3.60 -0.30 0 -0.55 0.35 -0.55 0.80 0 1.40 -2.55 5 -4 5.65 -0.75 0.30 -1.50 1.05 -1.65 1.55 -0.15 0.55 -0.70 1 -1.25 1 -0.55 0 -2.30 0.60 -3.90 1.35 -2.35 1.05 -3.90 1.35 -7.45 1.45 -2.45 0.10 -4.95 0 -5.50 -0.25z m-0.05 -2 c-3.40 -1.25 -5.15 -2.15 -8 -4.35 -1.65 -1.25 -2.15 -1.45 -1.45 -0.65 1.50 1.80 2.20 2.30 5.50 3.90 3.50 1.75 4.15 1.95 5.50 1.95 0.55 0.05 -0.15 -0.40 -1.55 -0.85z m10.50 0.40 c1.10 -0.30 2.90 -1.15 4 -1.85 1.15 -0.75 2.50 -1.55 3 -1.85 0.50 -0.25 1.30 -1.05 1.75 -1.75 0.65 -1.05 0.45 -0.95 -1.45 0.55 -2.55 2.05 -4.65 3.20 -8.25 4.50 -2.75 1 -2.15 1.25 0.95 0.40z m-0.05 -3.15 c2 -0.95 4.05 -2.10 4.55 -2.50 1 -0.80 1 -0.80 0 -1.50 -1.90 -1.45 -4.95 -1.90 -11.50 -1.70 -4.65 0.15 -6.95 0.45 -8.30 1.05 l-1.85 0.85 1.20 1.20 c1.60 1.60 8.05 4.25 10.40 4.30 1.20 0 3.30 -0.65 5.50 -1.70z"/>
  <path d="M173 251.55 c-0.85 -0.30 -0.10 -0.40 2.50 -0.35 4.15 0.05 6.45 -0.80 8.35 -3.10 1.25 -1.45 2.05 -1.25 1.20 0.30 -1 1.90 -3.80 3.15 -7.40 3.35 -1.85 0.10 -3.95 0.05 -4.65 -0.20z"/>
  <path d="M193.25 251.65 c-2.10 -0.50 -4.20 -1.80 -5 -3 -1.30 -1.95 -0.45 -1.95 1.70 0 2.40 2.20 5 2.95 8.90 2.65 2.10 -0.20 2.50 -0.15 1.40 0.15 -1.65 0.45 -5.45 0.55 -7 0.20z"/>
  <path d="M149.50 191 c0 -0.25 0.55 -0.50 1.25 -0.50 0.70 0 1.25 0.25 1.25 0.50 0 0.30 -0.55 0.50 -1.25 0.50 -0.70 0 -1.25 -0.20 -1.25 -0.50z"/>
  <path d="M143.75 189.30 c-0.90 -0.65 -0.90 -0.70 0.05 -1.95 0.50 -0.75 1.35 -1.35 1.80 -1.35 1.10 0 1.75 2.25 0.90 3.25 -0.75 0.95 -1.55 0.95 -2.75 0.05z"/>
  <path d="M148.65 185.95 c-1.20 -0.35 -1.95 -1.05 -2.65 -2.45 -1.25 -2.40 -1.25 -2.50 -0.05 -2.50 0.55 0 1.65 0.70 2.50 1.50 0.80 0.85 2.15 1.65 3 1.80 1.80 0.35 1.95 0.95 0.60 1.70 -1.15 0.60 -1.25 0.55 -3.40 -0.05z"/>
 </g>
 <g fill="#ff0000">
  <path d="M126.75 350.95 c-17.15 -1.05 -33.30 -4.15 -44.50 -8.50 -4.45 -1.75 -5.15 -2.20 -6.35 -4.10 -0.75 -1.15 -1.65 -2.50 -2 -3.05 -0.35 -0.50 -2.50 -3.75 -4.75 -7.25 -2.25 -3.45 -4.75 -7.30 -5.60 -8.55 -2 -2.90 -7.60 -14.35 -10.05 -20.50 -3.10 -7.90 -4.50 -15.10 -4.50 -23.60 0 -10.90 3.05 -19.95 8.65 -25.80 6.25 -6.50 18.30 -11.70 29 -12.45 2.40 -0.15 4.35 -0.50 4.35 -0.70 0 -0.25 1.45 -0.45 3.25 -0.45 1.80 0 3.25 0.20 3.25 0.45 0 0.20 1.95 0.55 4.40 0.70 10.35 0.75 23.85 5.10 35.85 11.60 2.20 1.20 5.25 2.80 6.75 3.55 2.45 1.20 7.85 4.85 8.50 5.70 0.15 0.20 1.95 1.60 4 3.20 2.05 1.55 6 4.80 8.75 7.20 2.70 2.40 5.15 4.35 5.35 4.35 0.20 0 1 0.70 1.85 1.55 0.85 0.85 2.95 2.30 4.65 3.25 3.05 1.65 3.30 1.70 8.90 1.70 5.40 0 5.95 -0.10 8.75 -1.50 1.65 -0.80 3.95 -2.45 5.10 -3.60 1.20 -1.15 2.15 -1.90 2.15 -1.65 0 0.25 1.15 -0.65 2.50 -2 2.55 -2.45 8.05 -7.05 11.75 -9.75 1.10 -0.80 2.60 -2.10 3.35 -2.90 1.80 -2 6.90 -5.35 8.05 -5.35 0.55 0 1.55 -0.40 2.25 -0.95 3.05 -2.15 17.75 -8.95 23.15 -10.75 4.70 -1.55 13.40 -3.40 17.10 -3.65 2.10 -0.15 3.85 -0.50 3.85 -0.70 0 -0.25 1.35 -0.45 3 -0.45 1.65 0 3 0.20 3 0.50 0 0.30 1.45 0.50 3.40 0.50 5.40 0.05 14 2.05 19.45 4.55 1.20 0.50 2.35 0.95 2.65 0.95 0.25 0 0.50 0.15 0.50 0.40 0 0.20 0.90 0.80 2 1.30 4.10 1.95 8.10 5.85 10.65 10.35 3.05 5.45 4.20 9.20 4.95 16.30 0.45 4.60 0.45 6.80 -0.05 10.35 -1.10 7.80 -3.10 16 -4.10 16.55 -0.25 0.20 -0.45 0.65 -0.45 1.10 0 0.45 -1.95 4.80 -4.30 9.70 -4.05 8.40 -7.60 14.40 -13.05 22.10 -1.30 1.85 -2.85 4.15 -3.40 5.05 -1.60 2.60 -2.95 4.50 -3.50 4.90 -1.25 0.95 -9.10 3.60 -15 5.15 -11.05 2.90 -21.05 4.40 -35.25 5.25 -9.65 0.60 -108.60 0.55 -118.25 -0.05z m64 -64.15 c1.40 -1.90 3.55 -4.70 4.90 -6.15 1.30 -1.45 2.35 -2.75 2.35 -2.85 0 -0.15 -1.45 0.40 -3.25 1.25 -2.90 1.30 -3.75 1.45 -8.10 1.45 -4.30 -0.05 -5.35 -0.20 -8.30 -1.50 l-3.45 -1.45 1.80 2.10 c1.65 1.90 6.50 8.25 8.55 11.25 0.75 1.05 0.85 1.05 1.90 0.25 0.60 -0.45 2.25 -2.40 3.60 -4.35z m66.95 -29.25 c-0.35 -1.75 -1 -1.80 -2.10 -0.15 -0.70 1.05 -0.65 1.10 0.60 1.10 0.70 0 1.30 0.25 1.30 0.60 0 0.30 0.10 0.45 0.25 0.30 0.15 -0.15 0.10 -0.95 -0.05 -1.85z"/>
  <path d="M179.75 277.45 c-4.50 -1.90 -7.35 -4.30 -6.95 -5.80 0.55 -2 4.95 -3.15 12.95 -3.30 7.35 -0.10 10.85 0.45 12.60 2.10 0.50 0.45 1.35 1.05 1.90 1.25 0.90 0.35 0.85 0.50 -1 2.15 -1.10 1 -3.60 2.55 -5.60 3.45 -4.85 2.30 -8.85 2.35 -13.90 0.15z"/>
  <path d="M178.85 158.65 c-0.10 -0.25 -0.40 -2.85 -0.60 -5.90 -0.15 -3 -0.55 -5.80 -0.85 -6.10 -0.35 -0.45 -2.10 -0.65 -5.45 -0.65 l-4.95 0 0 -6.95 c0 -8.10 -0.40 -7.55 5.85 -7.45 2.25 0.05 4.25 -0.05 4.50 -0.25 0.45 -0.45 1.10 -6.05 1.10 -9.70 l0.05 -2.65 7.95 0 7.95 0 0.20 6 c0.10 3.30 0.35 6.10 0.55 6.30 0.20 0.20 2.65 0.35 5.45 0.40 l5.15 0.05 0.15 5.50 c0.10 3.05 0 6.25 -0.15 7.15 l-0.30 1.60 -4.95 0 c-3.40 0 -5.05 0.20 -5.35 0.65 -0.20 0.30 -0.50 3.20 -0.65 6.35 l-0.25 5.75 -7.60 0.15 c-4.15 0.05 -7.70 -0.05 -7.80 -0.25z"/>
 </g>
 <g fill="#ff56af">
  <path d="M115 241.45 c-4.90 -1.35 -7.50 -3.80 -7.50 -6.95 0 -1.60 0.35 -2.35 1.85 -3.90 2.60 -2.70 5.85 -3.65 13.50 -3.95 13.15 -0.55 19.70 2.50 19 8.80 -0.30 2.80 -2.30 4.65 -6.15 5.80 -3 0.85 -17.75 1 -20.70 0.20z"/>
  <path d="M238.50 241.50 c-0.40 -0.25 -1.20 -0.50 -1.70 -0.50 -1.50 0 -4.20 -2.05 -5.05 -3.85 -0.40 -0.85 -0.75 -2.45 -0.75 -3.50 0 -1.60 0.35 -2.30 1.90 -3.80 2.45 -2.40 6.55 -3.35 14.50 -3.35 9.10 0 14.50 1.65 16.60 5.10 1.55 2.60 1.30 4.60 -0.85 6.95 -1.50 1.55 -2.55 2.15 -4.90 2.70 -3.50 0.85 -18.55 1 -19.75 0.25z"/>
  <path d="M180.85 228.80 c-3.60 -1.50 -6.40 -3.40 -9.20 -6.15 -1.90 -1.85 -2.15 -2.40 -2.15 -4.35 0 -2.20 0.05 -2.30 1.90 -2.75 3.15 -0.80 10.60 -1.55 15.85 -1.55 4.70 0 14.75 1.15 15.80 1.75 0.25 0.20 0.45 1.40 0.45 2.75 0 2.30 -0.15 2.50 -2.85 5.05 -6.30 5.75 -13.90 7.75 -19.80 5.25z"/>
  <path d="M143.85 188.70 c-0.35 -0.40 0.85 -1.70 1.60 -1.70 0.30 0 0.55 0.45 0.55 1 0 0.95 -1.40 1.40 -2.15 0.70z"/>
  <path d="M148.25 185.05 c-2.60 -1.55 -4.30 -5.05 -2.45 -5.05 1.25 0 4.25 3.55 4.10 4.85 l-0.15 1.15 -1.50 -0.95z"/>
 </g>
 <g fill="#ffebd3">
  <path d="M113 303.75 c0 -0.70 1.60 -3.25 2 -3.25 0.65 0 0.65 0.30 -0.25 2 -0.65 1.30 -1.75 2.05 -1.75 1.25z"/>
  <path d="M115.25 298.65 c0.20 -0.50 0.50 -1.30 0.60 -1.75 0.20 -0.75 1.65 -1.35 1.65 -0.70 0 1 -1.25 3.30 -1.85 3.30 -0.50 0 -0.65 -0.25 -0.40 -0.85z"/>
  <path d="M258 298.30 c0 -1.10 0.20 -1.30 1.55 -1.30 1.50 0 1.55 0.05 0.85 1.15 -1.10 1.65 -2.40 1.70 -2.40 0.15z"/>
  <path d="M184.25 292.85 c-0.70 -0.90 -2.35 -3.05 -3.60 -4.85 -1.30 -1.80 -3.95 -5.05 -5.90 -7.25 -1.95 -2.20 -4.25 -4.75 -5.05 -5.70 -1.80 -2.05 -9.75 -8.95 -14.45 -12.55 -1.90 -1.50 -3.60 -2.80 -3.75 -3 -0.70 -0.85 -6.05 -4.50 -8.50 -5.70 -1.50 -0.75 -4.55 -2.35 -6.75 -3.55 -12 -6.50 -25.50 -10.85 -35.85 -11.60 -2.45 -0.15 -4.40 -0.50 -4.40 -0.70 0 -0.25 -0.80 -0.45 -1.75 -0.45 -0.95 0 -1.75 0.20 -1.75 0.45 0 0.20 -1.95 0.55 -4.35 0.70 -2.45 0.20 -6 0.75 -7.95 1.25 l-3.55 0.95 -0.35 -3.30 c-0.70 -7.70 0.20 -15.85 2.45 -21.80 l1.20 -3.25 -1.55 -3.10 c-2.80 -5.65 -4.90 -15.35 -4.90 -22.60 0 -4.25 0.30 -4.70 3.90 -6.35 6.30 -2.85 31.60 -10.35 45.35 -13.45 2.20 -0.50 5.90 -1.40 8.20 -2 11.65 -2.95 21.50 -4.30 22.30 -3 0.20 0.30 4.20 0.50 10.35 0.50 6.20 0 10.80 0.20 12 0.60 1.45 0.45 2.05 0.45 2.50 0 0.80 -0.80 13.90 -0.80 16.65 -0.05 1.45 0.40 2 0.40 2.15 0 0.15 -0.40 3.50 -0.55 10.90 -0.55 7.65 0 10.70 -0.15 10.70 -0.55 0 -1 9.25 -0.15 16 1.45 25.20 6 34.95 8.55 45.50 11.95 10.10 3.20 15.30 5.15 17.75 6.75 l1.75 1.15 0 4.50 c0 7.75 -1.95 16.50 -4.95 22.05 l-1.35 2.55 1.10 3 c2 5.30 2.80 10.45 2.60 17.10 -0.10 3.30 0 6.05 0.25 6.05 0.20 0 0.35 0.60 0.35 1.30 0 1.10 -0.15 1.25 -1.10 1.05 -5.55 -1.40 -11.20 -2.30 -14 -2.35 -1.95 0 -3.40 -0.20 -3.40 -0.50 0 -0.25 -0.65 -0.50 -1.50 -0.50 -0.80 0 -1.50 0.20 -1.50 0.45 0 0.20 -1.75 0.55 -3.85 0.70 -3.70 0.25 -12.40 2.10 -17.10 3.65 -5.40 1.80 -20.10 8.60 -23.15 10.75 -0.70 0.55 -1.70 0.95 -2.25 0.95 -1.15 0 -6.25 3.35 -8.05 5.35 -0.75 0.80 -3.05 2.70 -5.10 4.25 -8.20 6.10 -17.85 15.95 -23.80 24.15 -4.70 6.45 -6.45 7.50 -8.45 5.10z m10.95 -15.10 c3.85 -2 5.90 -3.90 8.05 -7.45 1.60 -2.70 1.75 -3.35 1.75 -6.80 0 -3.30 -0.35 -5.35 -1.75 -10.25 -0.25 -0.85 0.10 -1.20 1.60 -1.95 2.60 -1.25 1.25 -1.60 -1.95 -0.50 -3.60 1.25 -9.50 1.25 -12 0 -2.05 -1 -3.90 -3.50 -3.90 -5.25 0 -0.55 -0.20 -1.05 -0.50 -1.05 -0.25 0 -0.50 0.45 -0.50 1 0 1.70 -1.35 3.85 -3.15 4.95 -2.70 1.65 -6.85 1.85 -11.75 0.55 -4.50 -1.20 -5.80 -1.05 -2.90 0.30 1 0.50 1.80 1 1.80 1.15 0 0.20 -0.45 1.90 -1 3.80 -1.50 5.25 -1.35 9.60 0.45 13.15 1.80 3.45 3.80 5.60 6.85 7.40 4 2.35 5.60 2.70 10.95 2.55 4.40 -0.10 5.35 -0.30 7.95 -1.60z m-61.05 -38 c3 -0.90 5.30 -2.50 5.90 -4.10 0.60 -1.65 -1.20 -4.35 -3.80 -5.65 -4.60 -2.20 -14.80 -2.55 -20.75 -0.75 -2.55 0.80 -6.50 3.95 -6.50 5.25 0 0.85 2.60 3.50 4.15 4.20 3.05 1.40 5.15 1.70 11.85 1.75 4.60 0.05 7.50 -0.20 9.15 -0.70z m122.60 0 c2.40 -0.55 3.40 -1.10 4.90 -2.75 l1.90 -2.05 -0.90 -1.60 c-0.55 -0.85 -1.70 -2.10 -2.55 -2.70 -3.70 -2.45 -13.35 -3.35 -20.35 -1.90 -2.85 0.60 -3.80 1.10 -5.40 2.65 -1.60 1.60 -1.85 2.15 -1.60 3.25 0.45 1.70 3.10 4.30 4.75 4.65 0.70 0.15 1.70 0.45 2.25 0.70 1.65 0.70 13.70 0.55 17 -0.25z m-64.10 -13.35 c5.70 -2.75 10.80 -7.95 8.90 -9.15 -0.90 -0.50 -10.80 -1.75 -14.30 -1.75 -3.95 0 -11.55 0.80 -14.35 1.55 -2.45 0.65 -2.40 1.45 0.25 4.10 2.80 2.75 5.60 4.65 9.20 6.15 3.60 1.55 5.50 1.35 10.30 -0.90z m-40.35 -16.15 c9.65 -5.65 12.60 -21.25 6.30 -33 -3.85 -7.10 -11.30 -9.95 -17.55 -6.80 -9.20 4.70 -12.90 20.95 -7.30 32 4.20 8.30 12.05 11.60 18.55 7.80z m79.70 0.25 c6.60 -3.35 10.50 -12.05 9.85 -21.90 -0.30 -4.95 -1 -7.70 -2.25 -8.95 -0.80 -0.80 -0.85 -0.80 -1 0.25 -0.10 0.60 -0.35 1.10 -0.55 1.10 -0.50 0 -2.55 -2.40 -2.55 -2.95 0 -0.25 -0.55 -0.95 -1.25 -1.60 -1.70 -1.65 -1.70 -3.15 0 -2.80 2.20 0.40 1.25 -1.15 -1.75 -2.85 -10.05 -5.70 -21.40 4.70 -21.50 19.75 0 3.70 1.65 9.95 3.45 13.15 4.10 7.10 11.40 9.95 17.55 6.80z"/>
  <path d="M147.30 183.80 c-1.25 -1.25 -2.30 -2.65 -2.30 -3.05 0 -1.30 2.15 -0.80 3.75 0.80 1.25 1.30 1.75 1.50 3.20 1.25 0.90 -0.15 2.05 -0.60 2.55 -1.05 1.15 -1.05 3 -1 2.95 0.15 -0.05 1.40 -3.10 3.55 -5.60 3.90 -2.20 0.30 -2.35 0.25 -4.55 -2z"/>
  <path d="M156.25 177.20 c-0.50 -1 -1.50 -2.20 -2.15 -2.75 -0.70 -0.50 -1 -0.95 -0.70 -0.95 0.95 0 4.10 3.50 4.10 4.50 0 1.35 -0.10 1.30 -1.25 -0.80z"/>
  <path d="M229.05 185.30 c-2.80 -1.80 -3.95 -4.80 -1.80 -4.80 0.90 0 1.25 0.25 1.25 1 0 0.65 0.35 1 1 1 0.55 0 1 0.20 1 0.45 0 0.25 0.45 0.65 1 0.80 1.25 0.40 1.30 2.05 0.10 2.35 -0.45 0.15 -1.60 -0.25 -2.55 -0.80z"/>
  <path d="M84.75 124.35 c-10.75 -10.95 -24.60 -19.80 -40.75 -26.05 -2.60 -1 -5.25 -2.05 -5.80 -2.30 l-1.10 -0.45 1.30 -2.65 c1.45 -3.15 5.30 -8.95 8.60 -13.15 4.45 -5.60 12.25 -12.25 19.65 -16.85 9.85 -6.10 11.35 -6.90 14.85 -8.35 7.50 -3 20.15 -6.05 29.10 -7.05 2.55 -0.30 5.35 -0.65 6.20 -0.80 1.50 -0.25 1.80 -0.05 4.90 3.80 4.85 6 8.45 11.60 11.75 18.30 2.90 5.90 6.30 14.40 6.90 17.20 0.15 0.85 0.35 1.50 0.50 1.50 0.10 0 1 -0.40 2.05 -0.95 3.10 -1.55 15.60 -5.60 19.60 -6.35 2.05 -0.35 8.30 -0.95 13.90 -1.25 11.20 -0.70 27.25 -0.05 34.55 1.30 4.05 0.80 16.45 4.90 19.45 6.45 0.95 0.50 1.75 0.80 1.80 0.70 0.05 -0.10 0.85 -2.40 1.75 -5.15 3.30 -10.30 9.95 -22.45 17.35 -31.65 3.15 -3.95 3.45 -4.15 4.90 -3.90 0.85 0.15 3.70 0.50 6.25 0.80 13.15 1.45 28.20 5.85 35.75 10.40 13.75 8.30 18.80 12.05 24.90 18.55 6.20 6.60 12.95 17.20 12 18.85 -0.25 0.45 -3 1.80 -6.15 3 -16.45 6.45 -34.05 18 -43.15 28.40 -2.85 3.20 -3 3.30 -5.35 3.30 -2 0 -2.85 -0.30 -4.60 -1.60 -6.40 -4.90 -22.80 -10.05 -39.35 -12.35 -2.05 -0.30 -5.65 -0.80 -8 -1.10 -6.60 -0.90 -72.45 -1 -82.75 -0.10 -12.75 1.10 -32.45 5.15 -38.65 8 -5.75 2.55 -9.40 4.45 -9.75 5 -0.20 0.35 -0.70 0.65 -1.05 0.65 -0.40 0 -0.80 0.35 -1 0.75 -0.20 0.55 -0.95 0.75 -2.65 0.70 -2.40 0 -2.45 -0.05 -7.90 -5.60z"/>
 </g>
 <g fill="#e0ffff">
  <path d="M75.10 339.25 c-8.75 -4.70 -21.50 -14.35 -26.15 -19.80 -10.50 -12.40 -17.45 -27.30 -21.45 -46.25 -3.35 -15.90 -4.15 -30.55 -4.15 -74.70 0 -44.15 0.80 -58.80 4.15 -74.70 0.85 -3.85 2.20 -9.30 3.05 -12 1.65 -5.40 6.15 -16.20 7.10 -17.15 1.20 -1.20 16.90 5.40 26.65 11.25 8.95 5.35 15.50 10.35 22.05 16.95 3.10 3.10 5.95 5.65 6.40 5.65 1 0 1 2.95 0 4.30 -0.40 0.50 -0.75 1.30 -0.75 1.75 0 0.45 -1 2.65 -2.25 4.90 -1.25 2.25 -2.25 4.15 -2.25 4.30 0 0.15 -1.25 2.90 -2.75 6.10 -1.50 3.25 -3.30 7.95 -4.05 10.40 -0.70 2.50 -1.60 5.65 -2 7 -1.30 4.35 -2.20 9.35 -2.30 12.70 -0.10 1.80 -0.45 3.60 -0.75 3.95 -1.85 1.95 0.70 16.65 4.10 23.75 0.75 1.55 1.55 3 1.80 3.15 0.75 0.45 0.50 1.80 -1.05 5.80 -2.15 5.45 -3.15 12.45 -2.75 18.65 l0.35 5.05 -4.15 1.60 c-13.20 5 -20.30 13.05 -22.70 25.75 -1.70 8.90 -0.35 19.40 3.75 29.85 2.45 6.15 8.05 17.60 10.05 20.50 2.90 4.30 9.95 15.15 9.95 15.40 0 0.15 0.45 0.75 0.95 1.30 1.45 1.60 4.05 6.25 3.65 6.50 -0.25 0.15 -2.25 -0.75 -4.50 -1.95z"/>
  <path d="M293.50 341 c0 -0.75 1.45 -3.55 2.35 -4.60 0.40 -0.45 1.10 -1.50 1.55 -2.35 0.45 -0.85 1.95 -3.05 3.25 -4.90 5.45 -7.65 9 -13.70 13.05 -22.10 2.35 -4.90 4.30 -9.25 4.30 -9.70 0 -0.45 0.20 -0.90 0.45 -1.05 0.50 -0.35 2.20 -5.80 2.95 -9.80 1.50 -7.70 1.65 -9.85 1.10 -14.95 -0.70 -6.55 -1.90 -10.25 -4.85 -15.50 -2.55 -4.50 -6.55 -8.40 -10.65 -10.35 -1.10 -0.50 -2 -1.10 -2 -1.30 0 -0.25 -0.25 -0.40 -0.50 -0.40 -0.30 0 -1.45 -0.45 -2.65 -0.95 -1.15 -0.55 -3.25 -1.35 -4.60 -1.80 -2.50 -0.80 -2.55 -0.85 -2.55 -2.75 0 -1.10 0.20 -2 0.45 -2 0.30 0 0.40 -2.30 0.20 -6.10 -0.25 -6.35 -1.35 -11.30 -3.45 -15.70 l-1.05 -2.30 1.80 -3.30 c2.25 -4.30 3.60 -8.20 4.55 -13.85 1.15 -6.50 1.05 -10.35 -0.20 -11.15 -0.85 -0.50 -1 -1.15 -1 -4 0 -3.35 -1.65 -11.15 -4.20 -19.75 -1.45 -4.95 -6.20 -15.80 -9.50 -21.75 -2.50 -4.55 -3.30 -6.70 -3.30 -8.65 0 -1.20 0.20 -1.45 1.20 -1.45 0.85 0 2.05 -0.95 4.10 -3.30 6.25 -7.15 20 -17.35 30.70 -22.85 2.90 -1.45 8.10 -3.75 11.50 -5.10 3.45 -1.35 6.50 -2.75 6.80 -3.10 1 -1.20 1.65 -0.70 3.20 2.40 6.85 13.55 10.65 29.50 12.25 51.60 1.65 21.85 1.45 84.25 -0.25 104.60 -2.40 28.25 -9.95 49.30 -23.75 65.90 -3.45 4.15 -10.65 10.20 -18.30 15.35 -6.25 4.25 -12.95 7.85 -12.95 7z"/>
  <path d="M139.65 89.40 c-0.30 -0.35 -0.65 -1.30 -0.85 -2.15 -0.80 -3.20 -4.05 -11.25 -6.85 -17 -3.40 -6.80 -7.90 -13.70 -12.70 -19.40 -2.05 -2.45 -3.05 -3.95 -2.65 -4.10 3.80 -1.30 113.20 -1.95 129.90 -0.75 4 0.25 7.85 0.50 8.65 0.50 0.75 0 1.35 0.20 1.35 0.45 0 0.25 -1.60 2.45 -3.50 4.85 -1.95 2.45 -4.80 6.35 -6.35 8.65 -3.60 5.45 -9.20 17 -11.30 23.50 -0.90 2.80 -1.90 5.30 -2.20 5.60 -0.35 0.35 -1.35 0.10 -3.20 -0.85 -3.95 -2 -15.95 -6.05 -20.40 -6.90 -7.15 -1.35 -22.10 -2 -32.30 -1.35 -5.10 0.30 -11 0.90 -13.10 1.25 -4.60 0.80 -16.70 4.80 -20.75 6.85 -3.30 1.70 -3.15 1.65 -3.75 0.85z"/>
 </g>
 <g fill="#ffffff">
  <path d="M192.10 332.40 c-3.25 -4.30 -7.60 -13.75 -7.60 -16.50 0 -0.85 -0.70 -0.90 -13.40 -0.90 l-13.45 0 -4.70 -4.85 c-5.15 -5.35 -8.55 -9.85 -15.10 -20.15 -2.35 -3.70 -5.10 -7.60 -6.05 -8.65 -3.65 -4 -5.70 -1.90 -13.30 13.65 -2.75 5.65 -6.10 12.40 -7.40 15 l-2.35 4.75 -11.35 0.15 c-6.35 0.05 -11.40 -0.10 -11.40 -0.30 0 -0.60 9.55 -1.20 16.65 -1.05 2.95 0.05 5.50 0 5.60 -0.10 0.20 -0.20 5.95 -12.40 6.95 -14.70 0.35 -0.80 2.20 -4.80 4.20 -8.80 5.85 -11.95 8.80 -14.25 13 -10.05 1.05 1.05 4.25 5.60 7.10 10.10 5.85 9.25 8.45 12.75 13.90 19.15 l3.80 4.35 14.40 0 14.40 0 0 1.25 c0 3.20 6.95 17.25 8.55 17.25 0.15 0 1.60 -2.15 3.20 -4.75 3.50 -5.80 8.50 -12.60 9.75 -13.25 0.50 -0.30 4.10 -0.50 7.90 -0.50 l7 0 1.55 -3.25 c4.15 -8.90 28.90 -53 31.10 -55.45 1.20 -1.35 1.50 -1.45 2.55 -0.95 0.75 0.35 1.35 1.15 1.55 2 0.15 0.75 0.05 6.60 -0.15 12.90 -0.60 15.15 -0.60 25.65 -0.05 25.95 0.25 0.15 0.80 -0.25 1.20 -0.85 0.40 -0.65 1.90 -2.45 3.35 -4 4.45 -4.85 6.85 -3.60 7.95 4.05 0.65 4.90 1.70 17.65 1.45 18.60 -0.15 0.65 1.85 0.75 14.10 0.90 13.75 0.10 16.40 0.40 14.50 1.60 -0.90 0.55 -30.85 0.70 -31.15 0.15 -0.15 -0.25 -0.50 -4.55 -0.80 -9.65 -0.60 -9.05 -1.25 -14.85 -1.80 -15.40 -0.40 -0.40 -2.55 1.75 -5.15 5.15 -2.95 3.85 -3.25 4.15 -4.40 4.35 -0.60 0.10 -1.15 -0.35 -1.70 -1.35 -0.65 -1.30 -0.75 -4.15 -0.65 -19.95 0.10 -10.20 -0.05 -18.30 -0.25 -18 -1.45 1.60 -28.15 48.10 -30.40 52.85 l-0.90 1.85 -7.40 0 -7.40 0 -2.60 3.60 c-1.45 2 -4.55 6.40 -6.90 9.85 -2.35 3.50 -4.65 6.35 -5.10 6.45 -0.50 0.10 -1.55 -0.80 -2.80 -2.50z"/>
  <path d="M230.75 190.50 c-0.40 -0.70 0.15 -1.50 1.05 -1.50 0.40 0 0.70 0.45 0.70 1 0 1.05 -1.20 1.40 -1.75 0.50z"/>
  <path d="M223.60 189.55 c-0.40 -0.20 -0.60 -0.95 -0.50 -1.60 0.20 -1.50 2.25 -1.65 3.10 -0.30 0.45 0.75 0.35 1.05 -0.40 1.65 -1.15 0.80 -1.30 0.85 -2.20 0.25z"/>
  <path d="M149.45 184.95 c-4 -3.40 -4.45 -3.95 -4.45 -5.10 0 -4.60 4.85 -7.90 8.75 -6.05 2.70 1.25 3.75 3.10 3.75 6.45 0 1.60 -0.20 2.70 -0.45 2.50 -0.25 -0.15 -0.80 0.15 -1.15 0.60 -0.35 0.50 -1.20 0.95 -1.90 1.05 -0.70 0.05 -1.50 0.45 -1.80 0.85 -0.75 1 -1.30 0.95 -2.75 -0.30z"/>
  <path d="M230.25 185.40 c-0.55 -0.30 -1.15 -0.80 -1.35 -1.10 -0.25 -0.35 -0.40 -0.30 -0.40 0.20 -0.05 0.55 -0.30 0.40 -1 -0.45 -0.55 -0.60 -0.85 -1.35 -0.70 -1.60 0.15 -0.25 0.05 -0.45 -0.20 -0.45 -1.75 0 -0.60 -5.50 1.50 -7.25 2.15 -1.80 5.75 -1.75 7.60 0.05 0.70 0.75 1.30 1.55 1.30 1.80 0 0.25 0.35 0.80 0.75 1.20 0.90 0.95 1 3.45 0.15 4.55 -2.30 2.85 -3.40 3.65 -5 3.65 -0.90 0 -2.10 -0.30 -2.65 -0.60z"/>
  <path d="M74.70 183.85 c-0.30 -0.75 0.05 -8.50 0.50 -10.35 0.15 -0.70 0.50 -2.25 0.80 -3.50 0.30 -1.25 0.60 -2.50 0.65 -2.85 0.10 -0.35 0.30 -0.75 0.45 -0.95 0.20 -0.15 0.20 -0.60 0.05 -1 -0.15 -0.40 0 -1 0.30 -1.35 0.30 -0.40 0.65 -1.20 0.75 -1.90 0.15 -0.65 0.25 -1.25 0.35 -1.30 0.05 -0.10 0.15 -0.35 0.20 -0.65 0.05 -0.25 0.20 -0.65 0.25 -0.85 0.05 -0.25 0.10 -0.60 0.05 -0.85 -0.05 -0.20 0.15 -0.70 0.45 -1.05 0.30 -0.35 0.50 -0.85 0.45 -1.05 -0.05 -0.25 0.25 -1.25 0.70 -2.20 0.40 -0.95 0.65 -1.90 0.55 -2.10 -0.15 -0.25 0 -0.40 0.30 -0.40 0.30 0 0.40 -0.20 0.25 -0.50 -0.15 -0.25 -0.05 -0.50 0.25 -0.50 0.30 0 0.40 -0.20 0.25 -0.50 -0.15 -0.25 -0.05 -0.50 0.25 -0.50 0.30 0 0.40 -0.20 0.25 -0.50 -0.15 -0.25 -0.05 -0.50 0.25 -0.50 0.30 0 0.45 -0.20 0.30 -0.45 -0.20 -0.25 -0.10 -0.55 0.15 -0.65 0.60 -0.25 2.60 -4.95 2.25 -5.45 -0.15 -0.25 0 -0.45 0.30 -0.45 0.30 0 0.40 -0.20 0.25 -0.50 -0.15 -0.25 -0.10 -0.50 0.20 -0.50 0.30 0 0.85 -0.65 1.30 -1.50 0.45 -0.80 0.65 -1.50 0.50 -1.50 -0.20 0 0.05 -0.35 0.45 -0.80 0.45 -0.40 0.70 -0.95 0.55 -1.20 -0.15 -0.20 0.10 -0.55 0.55 -0.70 0.40 -0.15 0.65 -0.50 0.50 -0.70 -0.15 -0.25 0.15 -1.20 0.65 -2.15 0.50 -0.95 0.80 -2 0.70 -2.30 -0.15 -0.35 0.35 -0.85 1.05 -1.15 0.70 -0.25 1.30 -0.70 1.30 -1 0 -0.25 0.35 -0.50 0.75 -0.50 0.35 0 0.90 -0.30 1.10 -0.65 0.35 -0.55 4.05 -2.45 9.65 -5 2.90 -1.30 12.25 -3.80 20.25 -5.40 13.40 -2.65 18.25 -3 45.75 -3.25 13.90 -0.15 25.50 -0.20 25.75 -0.20 0.30 0.05 7.15 0.10 15.25 0.15 8.15 0.10 15 0.30 15.25 0.45 0.30 0.15 2.30 0.45 4.50 0.65 2.20 0.20 4.10 0.40 4.25 0.50 0.15 0.10 1.50 0.30 3 0.50 4.40 0.55 14.20 2.70 20.70 4.55 6.70 1.90 13.90 5.10 17.15 7.60 1.20 0.85 2.65 1.60 3.20 1.60 0.85 0 0.95 0.15 0.50 0.70 -0.45 0.50 -0.40 1.05 0 2.10 0.35 0.80 0.65 1.55 0.70 1.70 0.35 1.10 1.50 3 1.85 3 0.20 0 0.35 0.15 0.30 0.40 -0.10 0.20 1.05 2.75 2.50 5.70 1.40 2.95 2.60 5.55 2.60 5.85 0 0.30 0.25 0.55 0.60 0.55 0.30 0 0.45 0.15 0.30 0.30 -0.20 0.15 0.20 1.45 0.90 2.85 2.85 6.35 6.60 21.80 6.70 27.80 0.05 2.35 0.05 4.50 0.05 4.70 -0.05 0.25 -0.70 -0.05 -1.45 -0.60 -4.35 -3.05 -25.45 -9.60 -50.60 -15.65 -20.45 -4.90 -24.75 -5.65 -25.50 -4.35 -0.35 0.55 -2.45 0.65 -10.95 0.50 -7.90 -0.10 -10.55 0 -10.55 0.45 0 0.40 -0.75 0.50 -2.60 0.30 -6.45 -0.75 -15.05 -0.90 -16.20 -0.30 -0.80 0.45 -1.90 0.50 -3.80 0.20 -1.45 -0.20 -7.30 -0.40 -13.05 -0.45 -7.20 -0.05 -10.55 -0.25 -10.95 -0.65 -0.65 -0.65 -4.40 -0.85 -4.40 -0.20 0 0.20 -1.05 0.40 -2.35 0.45 -1.35 0.05 -2.45 0.35 -2.55 0.60 -0.10 0.25 -0.45 0.40 -0.85 0.25 -1.15 -0.45 -31.80 7.10 -32.15 7.90 -0.10 0.25 -0.40 0.30 -0.60 0.15 -0.60 -0.40 -5.05 0.80 -16.05 4.25 -9.85 3.15 -15.40 5.35 -17 6.70 -0.80 0.65 -1.05 0.70 -1.25 0.15z m118.30 -32.35 c0.15 -3.15 0.45 -6.05 0.65 -6.35 0.30 -0.45 1.95 -0.65 5.35 -0.65 l4.95 0 0.30 -1.60 c0.15 -0.90 0.25 -3.40 0.15 -5.60 l-0.15 -3.90 -5.15 -0.15 c-2.80 -0.05 -5.25 -0.25 -5.45 -0.45 -0.20 -0.20 -0.45 -3 -0.55 -6.30 l-0.20 -6 -6.40 0 -6.35 0 -0.35 5.55 c-0.20 3.05 -0.50 5.85 -0.60 6.20 -0.35 0.85 -5 1.50 -7.40 1.05 -3.15 -0.60 -3.30 -0.30 -3.30 5.75 l0 5.45 4.95 0 c3.35 0 5.10 0.20 5.45 0.65 0.30 0.30 0.70 3.10 0.85 6.10 0.20 3.05 0.50 5.70 0.60 5.90 0.15 0.20 2.95 0.30 6.30 0.25 l6.10 -0.15 0.25 -5.75z"/>
 </g>
</svg>